<?xml version="1.0" encoding="utf-8"?>
<!-- Generator: Adobe Illustrator 25.4.1, SVG Export Plug-In . SVG Version: 6.00 Build 0)  -->
<svg version="1.1" id="Layer_1" xmlns="http://www.w3.org/2000/svg" xmlns:xlink="http://www.w3.org/1999/xlink" x="0px" y="0px"
	 viewBox="0 0 20 20" style="enable-background:new 0 0 20 20;" xml:space="preserve">
<style type="text/css">
	.st0{fill:#999999;}
</style>
<g>
	<path class="st0" d="M5.5,20c1.3,0,2.6,0,3.8,0c0-2.8,0-5.6,0-8.3c1.2,0,2.4,0,3.6,0c0,2.8,0,5.6,0,8.3c1.3,0,2.6,0,3.8,0
		c0-3.8,0-7.6,0-11.5c-2.5,0-4.9,0-7.4,0c0-0.3,0-0.6,0-0.9c0-0.2,0-0.4,0.1-0.6c0.2-0.4,0.6-0.6,1.1-0.5c0.7,0,1.3,0,2,0
		c0.1,0,0.3,0,0.4,0c0-1.1,0-2.1,0-3.2c-0.6,0-1.1,0-1.7,0c-0.5,0-2.7,0-3.7,0.6c-0.6,0.3-1.4,1-1.7,1.8C5.6,6.4,5.5,6.9,5.5,7.5
		c0,0.4,0,0.7,0,1.1c-0.7,0-1.4,0-2.2,0c0,1,0,2.1,0,3.1c0.7,0,1.4,0,2.1,0C5.5,14.5,5.5,17.2,5.5,20z"/>
</g>
</svg>
